<svg width="32" height="32" viewBox="0 0 32 32" fill="none" xmlns="http://www.w3.org/2000/svg">
<path d="M19.9993 2.66667H11.9993C11.263 2.66667 10.666 3.26362 10.666 4V6.66667C10.666 7.40305 11.263 8 11.9993 8H19.9993C20.7357 8 21.3327 7.40305 21.3327 6.66667V4C21.3327 3.26362 20.7357 2.66667 19.9993 2.66667Z" stroke="#FF6B00" stroke-width="2.66667" stroke-linecap="round" stroke-linejoin="round"/>
<path d="M21.334 5.33333H24.0007C24.7079 5.33333 25.3862 5.61429 25.8863 6.11438C26.3864 6.61448 26.6673 7.29276 26.6673 8V26.6667C26.6673 27.3739 26.3864 28.0522 25.8863 28.5523C25.3862 29.0524 24.7079 29.3333 24.0007 29.3333H8.00065C7.29341 29.3333 6.61513 29.0524 6.11503 28.5523C5.61494 28.0522 5.33398 27.3739 5.33398 26.6667V8C5.33398 7.29276 5.61494 6.61448 6.11503 6.11438C6.61513 5.61429 7.29341 5.33333 8.00065 5.33333H10.6673" stroke="#FF6B00" stroke-width="2.66667" stroke-linecap="round" stroke-linejoin="round"/>
<path d="M12 18.6667L14.6667 21.3333L20 16" stroke="#FF6B00" stroke-width="2.66667" stroke-linecap="round" stroke-linejoin="round"/>
</svg>
