<svg width="20" height="20" viewBox="0 0 20 20" fill="none" xmlns="http://www.w3.org/2000/svg">
<path d="M12.4993 1.66667H7.49935C7.03911 1.66667 6.66602 2.03977 6.66602 2.50001V4.16667C6.66602 4.62691 7.03911 5.00001 7.49935 5.00001H12.4993C12.9596 5.00001 13.3327 4.62691 13.3327 4.16667V2.50001C13.3327 2.03977 12.9596 1.66667 12.4993 1.66667Z" stroke="#888888" stroke-width="1.66667" stroke-linecap="round" stroke-linejoin="round"/>
<path d="M13.334 3.33333H15.0007C15.4427 3.33333 15.8666 3.50892 16.1792 3.82148C16.4917 4.13404 16.6673 4.55797 16.6673 4.99999V16.6667C16.6673 17.1087 16.4917 17.5326 16.1792 17.8452C15.8666 18.1577 15.4427 18.3333 15.0007 18.3333H5.00065C4.55862 18.3333 4.1347 18.1577 3.82214 17.8452C3.50958 17.5326 3.33398 17.1087 3.33398 16.6667V4.99999C3.33398 4.55797 3.50958 4.13404 3.82214 3.82148C4.1347 3.50892 4.55862 3.33333 5.00065 3.33333H6.66732" stroke="#888888" stroke-width="1.66667" stroke-linecap="round" stroke-linejoin="round"/>
<path d="M7.5 11.6667L9.16667 13.3333L12.5 10" stroke="#888888" stroke-width="1.66667" stroke-linecap="round" stroke-linejoin="round"/>
</svg>
