<svg width="32" height="32" viewBox="0 0 32 32" fill="none" xmlns="http://www.w3.org/2000/svg">
<path d="M23.3342 25.3333H12.0009C10.27 25.3329 8.57338 24.8512 7.10056 23.942C5.62774 23.0328 4.43676 21.7319 3.66069 20.1848C2.88462 18.6377 2.55405 16.9053 2.70592 15.1811C2.85778 13.4569 3.4861 11.8089 4.52066 10.4213C5.55521 9.03364 6.95525 7.96102 8.56433 7.32328C10.1734 6.68553 11.9281 6.50779 13.6324 6.80991C15.3367 7.11203 16.9234 7.88211 18.2152 9.0341C19.507 10.1861 20.453 11.6746 20.9475 13.3333H23.3342C24.9255 13.3333 26.4516 13.9655 27.5768 15.0907C28.702 16.2159 29.3342 17.742 29.3342 19.3333C29.3342 20.9246 28.702 22.4508 27.5768 23.576C26.4516 24.7012 24.9255 25.3333 23.3342 25.3333Z" stroke="white" stroke-width="2.66667" stroke-linecap="round" stroke-linejoin="round"/>
</svg>
