<svg width="32" height="32" viewBox="0 0 32 32" fill="none" xmlns="http://www.w3.org/2000/svg">
<path d="M12 4H6.66667C5.19391 4 4 5.19391 4 6.66667V12C4 13.4728 5.19391 14.6667 6.66667 14.6667H12C13.4728 14.6667 14.6667 13.4728 14.6667 12V6.66667C14.6667 5.19391 13.4728 4 12 4Z" stroke="white" stroke-width="2.66667" stroke-linecap="round" stroke-linejoin="round"/>
<path d="M9.33398 14.6667V20C9.33398 20.7072 9.61493 21.3855 10.1151 21.8856C10.6152 22.3857 11.2935 22.6667 12.0007 22.6667H17.334" stroke="white" stroke-width="2.66667" stroke-linecap="round" stroke-linejoin="round"/>
<path d="M25.334 17.3333H20.0007C18.5279 17.3333 17.334 18.5272 17.334 20V25.3333C17.334 26.8061 18.5279 28 20.0007 28H25.334C26.8068 28 28.0007 26.8061 28.0007 25.3333V20C28.0007 18.5272 26.8068 17.3333 25.334 17.3333Z" stroke="white" stroke-width="2.66667" stroke-linecap="round" stroke-linejoin="round"/>
</svg>
