<svg width="32" height="32" viewBox="0 0 32 32" fill="none" xmlns="http://www.w3.org/2000/svg">
<path d="M13.334 2.66667V13.3333L17.334 9.33333L21.334 13.3333V2.66667" stroke="#FF6B00" stroke-width="2.66667" stroke-linecap="round" stroke-linejoin="round"/>
<path d="M5.33398 26V6C5.33398 5.11595 5.68517 4.2681 6.3103 3.64298C6.93542 3.01786 7.78326 2.66667 8.66732 2.66667H25.334C25.6876 2.66667 26.0267 2.80714 26.2768 3.05719C26.5268 3.30724 26.6673 3.64638 26.6673 4V28C26.6673 28.3536 26.5268 28.6928 26.2768 28.9428C26.0267 29.1929 25.6876 29.3333 25.334 29.3333H8.66732C7.78326 29.3333 6.93542 28.9821 6.3103 28.357C5.68517 27.7319 5.33398 26.8841 5.33398 26ZM5.33398 26C5.33398 25.1159 5.68517 24.2681 6.3103 23.643C6.93542 23.0179 7.78326 22.6667 8.66732 22.6667H26.6673" stroke="#FF6B00" stroke-width="2.66667" stroke-linecap="round" stroke-linejoin="round"/>
</svg>
