<svg width="32" height="32" viewBox="0 0 32 32" fill="none" xmlns="http://www.w3.org/2000/svg">
<path d="M26.6674 17.3334C26.6674 24 22.0007 27.3334 16.454 29.2667C16.1636 29.3651 15.8481 29.3604 15.5607 29.2534C10.0007 27.3334 5.33398 24 5.33398 17.3334V8.00001C5.33398 7.64639 5.47446 7.30725 5.72451 7.0572C5.97456 6.80715 6.31369 6.66668 6.66732 6.66668C9.33398 6.66668 12.6674 5.06668 14.9874 3.04001C15.2698 2.79867 15.6292 2.66608 16.0007 2.66608C16.3722 2.66608 16.7316 2.79867 17.014 3.04001C19.3474 5.08001 22.6674 6.66668 25.334 6.66668C25.6877 6.66668 26.0268 6.80715 26.2768 7.0572C26.5269 7.30725 26.6674 7.64639 26.6674 8.00001V17.3334Z" stroke="white" stroke-width="2.66667" stroke-linecap="round" stroke-linejoin="round"/>
</svg>
